<?xml version="1.0" encoding="UTF-8"?>
<svg width="600" height="525" version="1.1" xmlns="http://www.w3.org/2000/svg" xmlns:cc="http://creativecommons.org/ns#" xmlns:dc="http://purl.org/dc/elements/1.1/" xmlns:rdf="http://www.w3.org/1999/02/22-rdf-syntax-ns#"><metadata><rdf:RDF><cc:Work rdf:about=""><dc:format>image/svg+xml</dc:format><dc:type rdf:resource="http://purl.org/dc/dcmitype/StillImage"/><dc:title/></cc:Work></rdf:RDF></metadata><path id="sign_border" d="m597.6 499.6-283.8-491.6c-2.9-5-8.2-8-13.9-8s-11 3.1-13.9 8l-283.8 491.6c-2.9 5-2.9 11.1 0 16 2.9 5 8.2 8 13.9 8h567.6c5.7 0 11-3.1 13.9-8 2.9-5 2.9-11.1 0-16z"/><polygon transform="matrix(1 0 0 .9959 .125 2.033)" points="43.88 491.5 299.9 48.2 555.9 491.5" fill="#f6bd16"/><path d="m264.7 157.4c-0.1806 0.0069-0.3584 0.02715-0.5332 0.0586-2.419 0.435-2.561 2.491-2.9 42.15-0.1964 22.93-0.06406 42.41 0.2949 43.28 0.8258 2.012 3.764 2.047 5.877 0.07226 1.926-1.8 2.329-81.45 0.4258-84.26-0.5562-0.8204-1.9-1.353-3.164-1.305zm39.53 20.71c-1.723 0-2.084 3.801-2.396 25.25-0.2022 13.89-0.04877 26.02 0.3398 26.97 0.3886 0.9466 1.467 1.483 2.396 1.193 1.28-0.3987 1.689-6.944 1.689-26.97 0-22.66-0.2907-26.44-2.029-26.44zm43.28 2.221c-0.6123-0.00218-1.222 0.3114-2.031 0.9395-1.724 1.337-2.029 7.499-2.029 41.03 0 21.7 0.4317 39.86 0.959 40.35 0.5273 0.4928 2.2 0.7305 3.719 0.5274 2.704-0.3618 2.768-1.19 3.117-40.34 0.3074-34.43 0.07405-40.19-1.689-41.56-0.8172-0.6339-1.433-0.951-2.045-0.9531zm-124 42.9c-0.3184 0.00331-0.6356 0.05523-0.9336 0.1621-1.906 0.6838-2.164 4.604-2.164 32.8 0 23.75 0.4315 32.43 1.672 33.59 1.328 1.242 2.007 1.137 3.295-0.5098 1.93-2.467 2.421-62.05 0.5352-64.89-0.4841-0.7285-1.449-1.16-2.404-1.15zm98.2 12.91c-6.099-0.2285-17.51 3.483-41.02 10.88-22.13 6.965-37.18 12.33-36.86 13.14 0.3 0.7565 1.933 5.928 3.629 11.49 1.696 5.562 4.283 11.11 5.75 12.33 1.467 1.217 3.684 2.211 4.926 2.211 2.006 0 65.16-19.74 72.84-22.77 3.672-1.447 3.678-0.5616-0.1113-14.53-2.269-8.364-3.059-12.53-9.158-12.76zm50.07 29.83c-3.425 0-8.004 2.196-8.004 3.838 0 2.023 5.682 1.37 8.662-0.9941 2.663-2.113 2.704-2.111 0.9219 0.03711-1.631 1.966-1.471 2.642 1.271 5.371 2.992 2.977 3.256 3.02 5.721 0.9355 2.526-2.136 2.49-2.264-1.607-5.686-2.306-1.925-5.44-3.502-6.965-3.502zm-7.498 6.078c-1.906 0.03144-3.211 1.076-3.211 3.219 0 2.049-3.369 6.066-10.82 12.9-5.951 5.461-10.82 10.91-10.82 12.1s1.603 3.352 3.562 4.793c1.96 1.441 4.023 2.621 4.584 2.621 0.5613 0 6.109-4.542 12.33-10.09 7.211-6.437 12.41-10.1 14.35-10.12 4.516-0.02887 3.948-5.287-1.156-10.72-2.93-3.119-6.37-4.751-8.82-4.711zm18.48 2.771c-1.849 0-4.114 4.359-4.061 7.818l0.04492 2.928 2.66-2.984c2.784-3.124 3.594-7.762 1.355-7.762zm-61.68 13.89c-2.063-0.03789-5.107 0.9324-6.668 2.545-2.378 2.456-2.363 2.529 0.5547 2.529 3.621 0 8.236-2.151 8.236-3.838 0-0.8281-0.8851-1.214-2.123-1.236zm4.713 1.525c-0.6829 0.05968-1.382 0.6306-2.588 1.65l-2.805 2.371 3.652 2.934c3.451 2.772 3.789 2.814 6.186 0.7871 2.467-2.087 2.445-2.229-0.8457-5.305-1.869-1.747-2.722-2.514-3.6-2.438zm-10.96 4.812c-3.329 0-3.805 0.4759-3.805 3.811 0 2.689 1.292 4.911 4.395 7.549 4.228 3.595 10.48 5.134 10.48 2.58 0-0.6774 1.825-2.115 4.057-3.193 2.85-1.377 4.059-2.893 4.059-5.09 0-4.317-2.233-3.914-5.426 0.9805-1.474 2.26-2.682 3.286-2.684 2.281-0.00906-3.274-7.02-8.918-11.08-8.918zm-82 1.367c-1.442 0.00839-3.07 0.0535-4.906 0.1211-16.26 0.5986-19.55 2.228-21.88 10.83-2.544 9.39-0.2952 13.71 9.645 18.56 4.805 2.342 5.184 2.362 12.17 0.6543 13.6-3.325 15.18-5.316 15.73-19.79 0.3284-8.674-0.6579-10.43-10.75-10.37zm83.4 2.426c1.309 0 5.621 4.198 5.621 5.473 0 1.4-3.401 0.9565-5.141-0.6699-1.866-1.744-2.172-4.803-0.4805-4.803zm24.03 25.09c-1.479 0.05554-3.165 0.3962-5.076 1.15-10.19 4.022-7.795 13.46-7.795 13.46l23.03 43.05-41.45 17.36-51.55 15.41-5.314 4.783-28.7 43.23h27.64l14.7-21.97 6.557 22.32 56.34-0.1777-12.58-41.1 57.58-24.27c3.802-1.287 7.299-6.686 4.428-13.11-8.971-17.63-28.88-55.27-28.88-55.27s-2.512-5.112-8.92-4.871zm-64.85 30.05a23.4 23.4 0 0 0-23.4 23.4 23.4 23.4 0 0 0 23.4 23.4 23.4 23.4 0 0 0 23.4-23.4 23.4 23.4 0 0 0-23.4-23.4z"/></svg>
