<?xml version="1.0" encoding="UTF-8" standalone="no"?>
<!-- Created with Inkscape (http://www.inkscape.org/) -->

<svg
   xmlns:dc="http://purl.org/dc/elements/1.1/"
   xmlns:cc="http://creativecommons.org/ns#"
   xmlns:rdf="http://www.w3.org/1999/02/22-rdf-syntax-ns#"
   xmlns:svg="http://www.w3.org/2000/svg"
   xmlns="http://www.w3.org/2000/svg"
   xmlns:sodipodi="http://sodipodi.sourceforge.net/DTD/sodipodi-0.dtd"
   xmlns:inkscape="http://www.inkscape.org/namespaces/inkscape"
   version="1.0"
   width="566.7038pt"
   height="566.65656pt"
   viewBox="0 0 566.7038 566.65656"
   id="svg8"
   sodipodi:docname="01.svg"
   inkscape:version="0.92.4 (5da689c313, 2019-01-14)">
  <metadata
     id="metadata14">
    <rdf:RDF>
      <cc:Work
         rdf:about="">
        <dc:format>image/svg+xml</dc:format>
        <dc:type
           rdf:resource="http://purl.org/dc/dcmitype/StillImage" />
        <dc:title></dc:title>
      </cc:Work>
    </rdf:RDF>
  </metadata>
  <defs
     id="defs12" />
  <sodipodi:namedview
     pagecolor="#ffffff"
     bordercolor="#666666"
     borderopacity="1"
     objecttolerance="10"
     gridtolerance="10"
     guidetolerance="10"
     inkscape:pageopacity="0"
     inkscape:pageshadow="2"
     inkscape:window-width="1920"
     inkscape:window-height="1027"
     id="namedview10"
     showgrid="false"
     fit-margin-top="0"
     fit-margin-left="0"
     fit-margin-right="0"
     fit-margin-bottom="0"
     inkscape:zoom="0.30569948"
     inkscape:cx="-567.37288"
     inkscape:cy="378"
     inkscape:window-x="0"
     inkscape:window-y="53"
     inkscape:window-maximized="1"
     inkscape:current-layer="svg8" />
  <path
     d="M 19.301165,283.32825 283.32987,547.35697 547.40261,283.28423 C 459.35022,195.33223 371.47182,107.20595 283.3739,19.299554 Z"
     style="fill:#ffffff;stroke:none"
     id="path2"
     inkscape:connector-curvature="0" />
  <path
     d="M 141.65941,141.66886 0,283.32826 141.66886,424.99712 283.32827,566.65653 425.01602,424.96877 566.70378,283.28102 425.06327,141.64051 C 347.16571,63.742954 283.40386,0 283.37551,0 283.34711,0 219.57586,63.752403 141.65941,141.66886 Z M 402.62189,164.08188 521.82103,283.28102 402.5652,402.53685 283.31882,521.78323 164.12913,402.5274 44.939444,283.27157 164.13858,164.07244 C 229.69574,98.51527 283.34716,44.88275 283.37551,44.88275 c 0.0283,0 53.68922,53.64197 119.24638,119.19913 z"
     style="fill:#ff0000;stroke:none"
     id="path4"
     inkscape:connector-curvature="0" />
  <path
     d="m 308.8,130.90653 c -0.07,0.009 -0.1183,0.0833 -0.175,0.225 -0.0473,0.14174 -9.07026,25.86101 -20.05,57.175 -10.97974,31.31399 -19.9872,56.97775 -20.025,57.025 -0.11339,0.11338 -0.90944,-0.17382 -0.9,-0.325 0.009,-0.10394 23.46377,-73.08247 23.7,-73.725 0.0283,-0.0756 -0.6732,-0.54959 -2.1,-1.4 -2.12603,-1.26617 -2.375,-1.40118 -2.375,-1.25 0,0.13229 -19.5372,76.2872 -19.575,76.325 -0.0189,0.0283 -0.55137,-0.0955 -1.175,-0.275 -1.49295,-0.42521 -4.03088,-0.94213 -5.675,-1.15 -1.84256,-0.22678 -6.03698,-0.23623 -7.7,0 -7.76708,1.08663 -14.06013,4.2995 -19.55,9.95 -3.85519,3.96858 -6.92478,9.11526 -8.55,14.35 -0.19843,0.62364 -0.3872,1.1622 -0.425,1.2 -0.0378,0.0378 -3.02159,-2.14423 -6.65,-4.875 -3.62842,-2.73076 -6.6311,-4.95335 -6.65,-4.925 -0.0189,0.0189 0.34645,0.76789 0.8,1.675 l 0.825,1.65 5.7,3.825 c 5.50877,3.69456 5.67224,3.82932 5.625,4.075 -0.0473,0.23622 0.13757,0.46473 1.725,2.175 0.97325,1.05829 2.04429,2.20038 2.375,2.55 l 0.625,0.625 1.675,-0.1 1.675,-0.1 3.15,2.1 c 1.72917,1.14333 3.03563,1.98229 2.875,1.85 -0.15119,-0.13228 -1.4049,-1.09506 -2.775,-2.125 -1.36066,-1.02049 -2.41614,-1.86555 -2.35,-1.875 0.0662,-0.009 2.25152,-0.13327 4.85,-0.275 l 4.725,-0.25 6.8,3.425 c 3.76071,1.8709 6.87165,3.4 6.9,3.4 0.0283,0 1.73677,-2.03656 3.825,-4.55 2.08823,-2.50398 3.85886,-4.62441 3.925,-4.7 0.10394,-0.12284 -0.16986,-0.83772 -1.625,-4.4 -0.95435,-2.3339 -1.7189,-4.2561 -1.7,-4.275 0.0189,-0.009 2.39915,0.23818 5.3,0.55 2.90084,0.31182 5.28721,0.55335 5.325,0.525 0.0283,-0.0378 0.40925,-1.48028 0.825,-3.2 l 0.775,-3.15 2.35,-0.025 c 1.29452,-0.009 2.712,0.0122 3.175,0.05 l 0.85,0.075 -8.05,8.8 c -4.44103,4.82844 -8.14606,8.89271 -8.25,9.025 -0.35906,0.4252 2.84139,-2.78135 10.325,-10.35 l 7.375,-7.475 2.75,-0.05 2.725,-0.05 -0.475,-0.7 c -0.27402,-0.38741 -0.79094,-1.06535 -1.15,-1.5 -0.35906,-0.43465 -0.63445,-0.8122 -0.625,-0.85 0.0189,-0.0378 1.04663,-1.10883 2.275,-2.375 l 2.225,-2.275 0.25,0.525 c 0.13228,0.30237 0.225,0.57775 0.225,0.625 0,0.15118 0.12375,0.10417 3.875,-1.625 1.93705,-0.88821 3.5622,-1.57224 3.6,-1.525 0.0378,0.0378 0.3937,1.2482 0.8,2.675 0.39686,1.4268 0.7622,2.6372 0.8,2.675 0.0662,0.0756 11.49428,-9.15315 11.825,-9.55 0.0756,-0.10394 1.49642,-2.68852 3.15,-5.75 1.65357,-3.07092 3.11772,-5.74823 3.25,-5.975 0.13229,-0.22678 0.19114,-0.4189 0.125,-0.4 -0.0567,0.0189 -2.4092,1.96609 -5.225,4.3 l -5.125,4.225 -3.675,0.1 c -2.03153,0.0473 -3.83937,0.0689 -4,0.05 -0.27402,-0.0283 1.75705,-2.09524 34.375,-35.025 19.05863,-19.23817 34.675,-35.01221 34.675,-35.05 0,-0.0378 -0.90392,-0.96336 -2,-2.05 -1.8709,-1.8709 -1.99882,-1.96064 -2.15,-1.8 -0.085,0.085 -15.9396,17.34487 -35.225,38.35 l -35.05,38.2 -2.775,1.95 c -1.52129,1.06773 -2.8183,1.99331 -2.875,2.05 -0.0662,0.0662 0.008,0.30865 0.225,0.8 0.26457,0.62363 0.28839,0.73327 0.175,0.875 -0.10394,0.13229 -3.75077,4.15353 -4.45,4.9 -0.17008,0.17954 -0.17794,0.16872 -1,-0.625 -1.59688,-1.57798 -3.10744,-2.79328 -4.95,-4.05 l -0.9,-0.625 17.375,-29.85 c 13.70105,-23.53745 17.34449,-29.86496 17.25,-29.95 -0.0567,-0.0662 -0.95451,-0.62637 -1.975,-1.25 l -1.875,-1.15 -0.325,0.575 c -0.17008,0.32126 -7.21204,14.23196 -15.65,30.9 -8.70253,17.21608 -15.37441,30.3 -15.45,30.3 -0.0945,0 -0.0823,-0.11259 0.05,-0.5 0.10394,-0.26457 9.32183,-25.97165 20.5,-57.125 11.18762,-31.15335 20.3189,-56.6683 20.3,-56.725 -0.0378,-0.085 -6.83187,-3.26042 -7.55,-3.525 -0.0283,-0.009 -0.0517,-0.003 -0.075,0 z m -34.475,43.625 -0.975,2.425 -0.95,2.45 -1.85,-0.725 c -1.02994,-0.40631 -1.89665,-0.71279 -1.925,-0.675 -0.0283,0.0378 -0.46475,2.08381 -0.975,4.55 -0.50079,2.46619 -0.92166,4.56496 -0.95,4.65 -0.0283,0.11339 0.38816,0.34132 1.9,1.05 1.08664,0.51024 2.00275,0.9622 2.05,1 0.0378,0.0378 0.50195,1.70626 1.05,3.7 0.53859,1.98429 1.0061,3.63111 1.025,3.65 0.0189,0.0189 0.78955,-1.07989 1.725,-2.45 1.77642,-2.59847 1.77174,-2.58984 7.375,-8.675 l 0.3,-0.325 -1.625,-5.25 -1.625,-5.25 -0.7,-0.05 c -0.38741,-0.0378 -1.40569,-0.0655 -2.275,-0.075 z m 128.85,23.325 c -0.0378,0 -0.0967,0.11161 -0.125,0.225 -0.29292,0.97324 -3.28721,10.2372 -3.325,10.275 -0.0189,0.0283 -2.04326,0.13662 -4.5,0.25 l -4.475,0.2 -1.275,0.95 c -0.69922,0.53859 -1.2811,0.99056 -1.3,1 -0.0283,0.0283 -1.2189,7.64666 -1.2,7.675 0.0378,0.0283 6.97165,4 7,4 0.0189,0 1.27871,-1.34032 2.8,-2.975 1.53074,-1.63467 2.79665,-2.98445 2.825,-2.975 0.0283,0 2.53242,1.70567 5.575,3.775 l 5.525,3.75 0.025,-1.375 c 0.009,-0.75592 0.006,-3.83912 -0.05,-6.825 l -0.1,-5.425 -3.675,-6.275 c -2.02209,-3.43944 -3.6872,-6.25 -3.725,-6.25 z m -94.025,3.825 -0.175,0.225 c -0.0945,0.12284 -0.66082,0.94014 -1.275,1.8 l -1.1,1.55 -0.7,3.5 c -0.37796,1.92759 -0.7,3.59607 -0.7,3.7 0.009,0.13229 0.80253,0.8793 2.475,2.325 1.36066,1.17168 2.4933,2.125 2.55,2.125 0.0473,0 0.90175,-0.96887 1.875,-2.15 l 1.775,-2.175 0.4,-1.95 c 0.21733,-1.06774 0.4433,-2.18818 0.5,-2.5 l 0.1,-0.575 -1.075,-2.9 c -0.58584,-1.58743 -1.09665,-2.9122 -1.125,-2.95 -0.0378,-0.0378 -0.43699,0.35866 -0.9,0.85 l -0.825,0.9 -0.9,-0.9 z m 57.775,5.175 c -0.0473,0 -20.87884,14.66579 -46.325,32.6 -25.44616,17.94365 -46.2689,32.6311 -46.25,32.65 0.009,0.0189 20.8755,-12.89182 46.35,-28.7 l 46.3,-28.75 v -3.925 c 0,-2.14493 -0.0372,-3.88445 -0.075,-3.875 z m -9.15,25.5 -1.875,2.1 -1.9,2.075 -0.9,2.425 c -0.50079,1.33231 -0.90945,2.4311 -0.9,2.45 0.0378,0.0378 16.51221,2.0128 16.55,1.975 0.0189,-0.009 -2.45132,-2.51077 -5.475,-5.525 z m 75.975,1.45 c -0.0473,-0.009 -36.74284,9.47773 -81.55,21.1 -44.80716,11.62227 -81.4689,21.1561 -81.45,21.175 0.0283,0.0283 165.23386,-37.39331 165.3,-37.45 0.0567,-0.0378 -2.22441,-4.80611 -2.3,-4.825 z m -96,11.2 c -0.0473,0.009 -12.25838,5.7605 -27.15,12.8 -14.89162,7.03951 -27.14941,12.84331 -27.225,12.9 -0.10394,0.0756 -0.0701,0.0817 0.1,0.025 0.33072,-0.11339 54.74056,-21.1061 54.75,-21.125 0.009,0 -0.0616,-1.03384 -0.175,-2.3 -0.11338,-1.38901 -0.23386,-2.3 -0.3,-2.3 z m 118.05,5.675 c -0.12283,0.009 -40.3841,6.84099 -89.5,15.175 -49.10646,8.32457 -89.41771,15.15 -89.55,15.15 -0.16063,0.009 -0.57243,-0.27361 -1.3,-0.85 l -1.1,-0.875 -0.05,3.625 -0.05,3.625 -2.825,1.925 c -1.55909,1.04884 -2.88386,1.89055 -2.95,1.9 -0.0662,0 -1.261,-0.7984 -2.65,-1.8 -3.68511,-2.66462 -3.74003,-2.65576 -0.225,0.075 1.32286,1.02995 2.4622,1.8872 2.5,1.925 0.0945,0.085 -4.44271,3.14725 -4.575,3.1 -0.0662,-0.0189 -11.21589,-9.51885 -13.975,-11.9 l -0.625,-0.55 -5.175,4.475 c -2.84414,2.46619 -5.2122,4.5 -5.25,4.5 -0.0473,0 -2.97553,-0.76455 -6.5,-1.7 l -6.4,-1.7 1.8,0.05 c 0.99214,0.0283 2.49014,0.0466 3.35,0.075 1.48349,0.0378 -2.74479,-0.27873 -7.8,-0.6 -0.93545,-0.0662 -6.00581,-0.40984 -11.25,-0.75 l -9.55,-0.625 -0.025,-0.275 c -0.0567,-0.32126 -0.0185,-0.30847 -0.85,-0.025 -0.59529,0.19843 -0.68245,0.18839 -2.525,0.075 -1.03939,-0.0567 -2.11653,-0.12166 -2.4,-0.15 l -0.525,-0.075 -0.45,-0.825 -0.45,-0.8 -3.225,-0.175 c -1.77641,-0.0945 -3.46043,-0.15 -3.725,-0.15 H 187.5 l -0.425,0.675 -0.4,0.7 -0.47504,-0.05 c -0.26458,-0.009 -10.1543,-0.64073 -21.975,-1.425 -11.8207,-0.77482 -21.65157,-1.40945 -21.85,-1.4 l -0.35,0.025 1.1,1.175 c 0.95435,1.03939 1.13208,1.19665 1.425,1.225 0.18898,0.0189 9.54014,0.39645 20.775,0.85 11.23486,0.45355 20.47165,0.84665 20.5,0.875 0.0283,0.0283 -0.42361,0.82065 -1,1.775 -0.56694,0.9449 -1.02224,1.77775 -0.975,1.825 0.0378,0.0378 1.40923,1.01277 3.025,2.175 l 2.925,2.125 3.225,0.525 c 1.76696,0.30236 3.28385,0.52835 3.35,0.5 0.0662,-0.0189 0.55196,-0.7618 1.1,-1.65 l 1,-1.625 h 2.05 2.05 v -0.35 c 0,-0.19843 -0.071,-1.32222 -0.175,-2.475 -0.10394,-1.16223 -0.17835,-2.12166 -0.15,-2.15 0.0567,-0.0567 20.40531,0.72441 20.925,0.8 0.24568,0.0378 0.3,0.0671 0.3,0.275 0,0.34962 0.49704,2.54603 0.875,3.85 0.32126,1.09608 0.32343,1.10276 0.125,1.15 -0.10393,0.0189 -25.14253,2.88832 -55.625,6.375 -30.48247,3.49613 -55.41555,6.375 -55.425,6.375 -0.0283,0.0189 -0.22835,2.44666 -0.2,2.475 0.0189,0.009 25.04804,-3.37079 55.625,-7.5 30.57696,-4.12922 55.66496,-7.5 55.75,-7.5 0.10394,0 0.23327,0.20314 0.375,0.6 0.12284,0.33071 0.40157,1.0053 0.6,1.525 0.19843,0.51024 0.3439,0.94056 0.325,0.95 -0.0189,0.009 -18.73342,4.15423 -41.6,9.2 -22.86658,5.04577 -41.64607,9.22776 -41.75,9.275 -0.16064,0.0662 -0.25767,0.31002 -0.475,1.425 -0.15118,0.73702 -0.22835,1.37165 -0.2,1.4 0.0473,0.0378 83.82204,-20.59882 84.2,-20.75 0.0567,-0.0189 0.23937,0.24428 0.4,0.575 0.20788,0.41575 0.2506,0.62165 0.175,0.65 -0.0662,0.0189 -6.37741,1.72457 -14.05,3.775 l -13.975,3.7 -0.175,1.425 c -0.10394,0.78426 -0.18445,1.44055 -0.175,1.45 0.009,0.009 6.52839,-2.12318 14.475,-4.75 14.49476,-4.7812 14.59055,-4.81241 14.6,-4.425 0,0.0567 -10.18067,5.59731 -22.625,12.325 l -22.65,12.225 0.075,0.9 c 0.0378,0.49135 0.0622,1.05157 0.1,1.25 l 0.075,0.35 22.47504,-13.225 c 12.36874,-7.27573 22.56496,-13.2872 22.65,-13.325 0.12284,-0.0756 0.30137,0.1545 0.925,1.175 0.70868,1.17167 1.6673,2.53719 2.65,3.775 0.37796,0.49135 0.40119,0.56162 0.25,0.675 -0.085,0.0567 -11.99914,9.56887 -26.475,21.125 l -26.3,21.025 1.85,1.825 c 1.02994,1.0016 1.94941,1.85276 2.025,1.9 0.11339,0.0662 3.63028,-3.14132 15.725,-14.225 8.57969,-7.87101 15.6061,-14.28444 15.625,-14.275 0.0189,0.0189 -0.11437,0.30373 -0.275,0.625 -0.16063,0.31182 -0.275,0.60276 -0.275,0.65 0,0.0662 2.59527,3.00136 3.2,3.625 0.16063,0.16063 0.24525,0.13761 2.05,-0.675 l 1.875,-0.85 0.95,0.95 0.95,0.925 1.875,-1.125 1.9,-1.15 0.725,-2.425 c 0.40631,-1.34176 0.71555,-2.49941 0.725,-2.575 0,-0.085 -0.71395,-0.59192 -1.725,-1.225 l -1.7,-1.075 -2.75,-0.05 -2.725,-0.05 6.725,-6.175 c 3.69456,-3.38274 6.7311,-6.15 6.75,-6.15 0.009,0 0.7679,0.72734 1.675,1.625 0.9071,0.89765 2.0803,1.98425 2.6,2.4 6.30248,5.04577 13.46461,7.49233 21.175,7.275 6.0568,-0.17008 11.44419,-1.88005 16.575,-5.225 2.11658,-1.37955 3.4474,-2.4602 5.375,-4.35 l 1.2,-1.15 17.975,14.475 c 9.90255,7.97496 18.00611,14.48445 18.025,14.475 0.009,-0.0189 -0.46082,-1.13935 -1.075,-2.5 l -1.1,-2.475 -16.7,-12.25 -16.7,-12.225 0.325,-0.4 c 0.17954,-0.20787 0.66259,-0.81475 1.05,-1.325 0.39686,-0.50079 0.7622,-0.90945 0.8,-0.9 0.0473,0.0189 10.12575,7.88426 22.4,17.475 12.27425,9.59073 22.46712,17.54881 22.675,17.7 l 0.375,0.275 1.075,-1.075 c 0.59529,-0.59529 1.08445,-1.1122 1.075,-1.15 -0.0189,-0.0283 -10.53381,-7.66163 -23.375,-16.95 -12.83175,-9.28836 -23.41496,-16.93996 -23.5,-17.025 -0.15118,-0.14174 -0.12304,-0.21514 0.425,-1.075 0.36851,-0.57639 0.62441,-0.90335 0.7,-0.875 0.0662,0.0283 9.60608,5.84436 21.2,12.95 11.58447,7.0962 21.09666,12.8689 21.125,12.85 0.0189,-0.0283 -0.48246,-1.10549 -1.125,-2.4 l -1.175,-2.35 -19.85,-10.9 -19.85,-10.9 0.675,-1.325 c 0.37796,-0.72757 0.84547,-1.65314 1.025,-2.05 l 0.325,-0.725 12.3,3.175 c 6.76549,1.74807 12.3122,3.2122 12.35,3.25 0.0756,0.0756 -0.86771,1.4 -1,1.4 -0.0473,0 -1.71906,-0.31594 -3.675,-0.675 -1.96539,-0.36851 -3.62441,-0.65 -3.7,-0.65 -0.10394,0 -0.51967,0.66218 -1.2,1.9 l -1.05,1.925 2.475,1.825 c 1.36065,1.01104 3.07853,2.27696 3.825,2.825 l 1.35,1 10.05,1.725 c 5.51821,0.9449 10.0561,1.69389 10.075,1.675 0.0283,-0.0283 0.20551,-2.58698 0.3,-4.25 l 0.025,-0.575 -1.65,-1.9 -1.65,-1.875 -2.05,-0.875 c -1.13388,-0.4819 -2.03445,-0.89056 -2.025,-0.9 0.009,-0.009 6.43233,1.62791 14.275,3.65 7.84267,2.02208 14.32441,3.675 14.4,3.675 0.0662,0 0.1,-0.0278 0.1,-0.075 0,-0.0378 0.28483,-1.96944 0.625,-4.275 0.34016,-2.30556 0.60945,-4.18111 0.6,-4.2 -0.0189,-0.009 -14.45872,-2.05881 -32.1,-4.525 -17.63183,-2.46619 -32.08111,-4.5061 -32.1,-4.525 -0.0189,-0.0189 0.16988,-0.67518 0.425,-1.45 0.26457,-0.77481 0.475,-1.46496 0.475,-1.55 0,-0.10394 -0.68914,-0.38247 -2.475,-1.025 l -2.47496,-0.87504 -0.5,-0.875 c -0.27402,-0.463 -0.47835,-0.87166 -0.45,-0.9 0.0189,-0.0283 13.8924,0.62183 30.825,1.425 l 30.775,1.45 0.25,0.25 0.25,0.275 5.575,0.375 5.55,0.375 0.325,-0.35 0.325,-0.35 39.35,1.875 c 21.64766,1.02049 39.36555,1.83445 39.375,1.825 0.0189,-0.0189 -0.72735,-0.58523 -1.625,-1.275 l -1.625,-1.275 -37.075,-1.15 c -20.39094,-0.65198 -37.12441,-1.19055 -37.2,-1.2 -0.0756,-0.0189 1.04032,-1.36354 2.675,-3.225 1.54963,-1.75751 2.7939,-3.21555 2.775,-3.225 -0.009,-0.0189 -4.46682,-1.99995 -9.9,-4.4 -5.43317,-2.40005 -9.8872,-4.39666 -9.925,-4.425 -0.0378,-0.0189 -1.26985,1.111 -2.725,2.5 l -2.65,2.525 -3.75,1.25 c -2.05044,0.68978 -3.7561,1.27165 -3.775,1.3 -0.0283,0.0189 0.3431,1.548 0.825,3.4 0.4819,1.85201 0.82835,3.41221 0.8,3.45 -0.0378,0.0283 -11.17178,-0.31535 -24.75,-0.75 -13.56876,-0.42521 -24.7122,-0.75945 -24.75,-0.75 -0.0378,0 -0.25433,-0.3437 -0.5,-0.75 -0.42521,-0.69923 -0.52377,-0.80292 -3.075,-2.825 l -2.65,-2.075 0.5,-0.075 c 0.27402,-0.0378 40.61914,-5.51345 89.65,-12.175 l 89.15,-12.1 0.05,-3.05 v -3.05 h -0.2 z m -251.5,14.7 c -0.003,0.0202 0.0108,0.0551 0.025,0.1 0.0378,0.10394 0.20491,0.56535 0.375,1 l 0.32504,0.775 14.775,7.125 c 8.11669,3.91189 14.78111,7.08445 14.8,7.075 0.009,-0.0189 -6.58055,-3.5446 -14.65,-7.825 -8.05999,-4.2804 -14.89153,-7.89881 -15.175,-8.05 -0.34725,-0.19842 -0.46658,-0.26068 -0.475,-0.2 z m -12.975,8.65 c -0.0283,0 -0.65963,0.53857 -1.425,1.2 -0.76537,0.66143 -1.36279,1.22165 -1.325,1.25 0.0945,0.0756 44.0433,6.9317 44.1,6.875 0.0378,-0.0283 -41.18937,-9.33445 -41.35,-9.325 z m 41.65,9.35 c -0.10393,-0.009 -0.1628,0.0217 -0.125,0.05 0.0283,0.0283 0.10886,0.0283 0.175,0 0.0756,-0.0283 0.0539,-0.05 -0.05,-0.05 z m -36.55,2.15 0.65,0.05 c 0.34962,0.0378 0.77381,0.0655 0.925,0.075 0.23622,0 0.20689,0.0454 -0.275,0.225 -0.9827,0.37796 -0.93602,0.37796 -1.125,0 z m 145.3,1.25 c 0.0567,0 0.50865,0.42085 1,0.95 l 0.875,0.975 -1.6,-0.075 c -0.88821,-0.0378 -2.62774,-0.0872 -3.875,-0.125 -1.24727,-0.0283 -2.20059,-0.0967 -2.125,-0.125 0.24567,-0.085 5.63051,-1.59055 5.725,-1.6 z m -109.05,0.2 c -0.0225,0.009 -0.0189,0.0358 0,0.05 0.0283,0.0283 0.10886,0.0283 0.175,0 0.0756,-0.0283 0.029,-0.05 -0.075,-0.05 -0.052,-0.005 -0.0775,-0.009 -0.1,0 z m -72.025,2.85 c -0.0378,-0.009 -1.36257,0.95943 -2.95,2.15 l -2.875,2.125 -0.025,1.15 c -0.0283,1.12443 -0.0329,1.1622 0.175,1.2 0.34961,0.0756 15.76771,1.47835 15.9,1.45 0.0945,-0.0283 -10.03602,-8.02776 -10.225,-8.075 z m 19.175,18.425 c 0,0.085 5.78051,5.65 5.875,5.65 0.0567,0 1.01947,-0.3809 2.125,-0.825 l 2,-0.8 v -1.75 -1.75 h -0.25 c -0.33072,0 -8.42853,-0.4433 -9.175,-0.5 -0.33072,-0.0283 -0.575,-0.0439 -0.575,-0.025 z m -21.225,14.7 c -0.0283,0 -0.0811,0.0683 -0.1,0.125 -0.0283,0.0662 -0.47696,1.57969 -1.025,3.375 l -1,3.275 0.3,0.425 c 1.63468,2.27721 5.69331,7.8061 5.75,7.825 0.0378,0.009 0.22657,-0.44251 0.425,-1 0.19843,-0.56694 0.61318,-1.73069 0.925,-2.6 l 0.55,-1.575 0.35,-0.05 c 0.19843,-0.0283 1.00629,-0.0872 1.8,-0.125 l 1.425,-0.05 1.125,-1.225 1.125,-1.2 0.6,-1.825 c 0.32127,-0.99214 0.5439,-1.8061 0.525,-1.825 -0.0567,-0.0567 -5.32106,-2.025 -5.425,-2.025 -0.0567,0 -0.44034,0.4364 -0.875,0.975 -0.43465,0.54804 -0.85886,0.9689 -0.925,0.95 -0.0567,-0.0189 -1.3165,-0.78955 -2.8,-1.725 -1.48349,-0.9449 -2.72166,-1.725 -2.75,-1.725 z"
     style="fill:#000000;stroke:none;stroke-width:0.80000001"
     id="path6"
     inkscape:connector-curvature="0" />
</svg>
