<?xml version="1.0" encoding="UTF-8" standalone="no"?>
<!-- Created with Inkscape (http://www.inkscape.org/) -->

<svg
   xmlns:dc="http://purl.org/dc/elements/1.1/"
   xmlns:cc="http://creativecommons.org/ns#"
   xmlns:rdf="http://www.w3.org/1999/02/22-rdf-syntax-ns#"
   xmlns:svg="http://www.w3.org/2000/svg"
   xmlns="http://www.w3.org/2000/svg"
   xmlns:sodipodi="http://sodipodi.sourceforge.net/DTD/sodipodi-0.dtd"
   xmlns:inkscape="http://www.inkscape.org/namespaces/inkscape"
   version="1.0"
   width="566.70374pt"
   height="566.65649pt"
   viewBox="0 0 566.70374 566.6565"
   id="svg22"
   sodipodi:docname="03.svg"
   inkscape:version="0.92.4 (5da689c313, 2019-01-14)">
  <metadata
     id="metadata28">
    <rdf:RDF>
      <cc:Work
         rdf:about="">
        <dc:format>image/svg+xml</dc:format>
        <dc:type
           rdf:resource="http://purl.org/dc/dcmitype/StillImage" />
        <dc:title></dc:title>
      </cc:Work>
    </rdf:RDF>
  </metadata>
  <defs
     id="defs26" />
  <sodipodi:namedview
     pagecolor="#ffffff"
     bordercolor="#666666"
     borderopacity="1"
     objecttolerance="10"
     gridtolerance="10"
     guidetolerance="10"
     inkscape:pageopacity="0"
     inkscape:pageshadow="2"
     inkscape:window-width="1920"
     inkscape:window-height="1027"
     id="namedview24"
     showgrid="false"
     fit-margin-top="0"
     fit-margin-left="0"
     fit-margin-right="0"
     fit-margin-bottom="0"
     inkscape:zoom="0.30569948"
     inkscape:cx="-567.37288"
     inkscape:cy="377.99994"
     inkscape:window-x="0"
     inkscape:window-y="53"
     inkscape:window-maximized="1"
     inkscape:current-layer="svg22" />
  <path
     d="M 19.301165,283.32825 283.32987,547.35697 547.40261,283.28423 C 459.35022,195.33223 371.47182,107.20595 283.3739,19.299554 Z"
     style="fill:#ffffff;stroke:none"
     id="path16"
     inkscape:connector-curvature="0" />
  <path
     d="M 141.65941,141.66886 0,283.32826 141.66886,424.99712 283.32827,566.65653 425.01602,424.96877 566.70378,283.28102 425.06327,141.64051 C 347.16571,63.742954 283.40386,0 283.37551,0 283.34711,0 219.57586,63.752403 141.65941,141.66886 Z M 402.62189,164.08188 521.82103,283.28102 402.5652,402.53685 283.31882,521.78323 164.12913,402.5274 44.939444,283.27157 164.13858,164.07244 C 229.69574,98.51527 283.34716,44.88275 283.37551,44.88275 c 0.0283,0 53.68922,53.64197 119.24638,119.19913 z"
     style="fill:#ff0000;stroke:none"
     id="path18"
     inkscape:connector-curvature="0" />
  <path
     d="m 280.95,78.20653 c -8.83384,9.560832 -0.0277,48.89836 -18.275,85.775 -9.4601,-10.09077 -13.25354,-29.0149 -23.975,-38.475 5.65637,14.50549 -10.10106,13.24613 -4.425,63.7 -8.5658,-2.14145 -8.8298,-5.67077 -27.75,-28.375 3.52282,22.01763 1.2853,35.95374 5.7,60.55 0,0 -4.56029,-0.96087 -26.5,-17.05 7.12067,23.9854 -5.31899,74.48935 23.025,110.2 l -0.1,-0.075 c 2.1813,32.3152 24.95995,59.00942 55.3,67.075 h -54.825 v 23.225 h 152.9 v -23.225 H 302.4 c 27.44994,-7.29838 48.69298,-29.85244 54.1,-58.025 v -0.025 c 7.51441,-12.01043 41.1233,-50.88965 15.275,-113.45 0,0 -7.58344,13.90227 -21.45,17.65 0,0 17.7661,-29.61459 3.15,-53.6 0,0 -4.2839,17.52546 -18.9,18.275 0,0 7.1143,-37.37931 -12,-61.175 -6.93741,15.76684 4.15401,22.30045 -18.925,35.325 -3.15749,-48.57834 -13.2399,-56.76633 -22.7,-88.3 z m -5.05,105.95 c 8.81214,5.42285 15.15119,14.74984 17.075,32.25 0.84619,7.69751 3.72354,12.10866 5.825,19.925 -5.03938,-1.07405 -10.26666,-1.65 -15.625,-1.65 -6.54798,0 -12.89598,0.83979 -18.95,2.425 -1.34201,-25.49458 12.00226,-19.89702 11.675,-52.95 z m -32.15,18.3 c 0,0 3.52718,22.22337 12.525,37.225 -6.33983,2.45072 -12.25598,5.75552 -17.625,9.75 -2.95594,-23.0388 3.73806,-28.24842 5.1,-46.975 z m 78.2,11.35 c 0,0 3.30382,22.25212 7.8,37.175 -7.1249,-5.69346 -15.3193,-10.10748 -24.225,-12.9 3.75314,-7.68053 9.52663,-17.79471 16.425,-24.275 z m -112.9,24.6 c 0,0 6.69606,6.75414 24.2,15.425 -6.14199,5.52226 -11.35628,12.05604 -15.4,19.325 -2.72958,-8.94006 -6.56017,-22.43097 -8.8,-34.75 z m 148.225,8.2 c 0.58743,8.22403 0.59771,28.23162 -3.15,39.1 l 0.025,0.375 c -3.31118,-10.09546 -8.71327,-19.23837 -15.7,-26.925 4.50671,-3.60177 12.16959,-9.34554 18.825,-12.55 z m -74.75,8.725 c 29.46455,1e-5 53.375,23.93545 53.375,53.4 0,29.46455 -23.91045,53.375 -53.375,53.375 -29.46454,0 -53.375,-23.91045 -53.375,-53.375 0,-29.46454 23.91045,-53.4 53.375,-53.4 z"
     style="fill:#000000;stroke:none;stroke-width:0.80000001"
     id="path20"
     inkscape:connector-curvature="0" />
</svg>
