<?xml version="1.0" encoding="UTF-8" standalone="no"?>
<!-- Created with Inkscape (http://www.inkscape.org/) -->

<svg
   xmlns:dc="http://purl.org/dc/elements/1.1/"
   xmlns:cc="http://creativecommons.org/ns#"
   xmlns:rdf="http://www.w3.org/1999/02/22-rdf-syntax-ns#"
   xmlns:svg="http://www.w3.org/2000/svg"
   xmlns="http://www.w3.org/2000/svg"
   xmlns:sodipodi="http://sodipodi.sourceforge.net/DTD/sodipodi-0.dtd"
   xmlns:inkscape="http://www.inkscape.org/namespaces/inkscape"
   version="1.0"
   width="566.7038pt"
   height="566.65656pt"
   viewBox="0 0 566.7038 566.65656"
   id="svg36"
   sodipodi:docname="04.svg"
   inkscape:version="0.92.4 (5da689c313, 2019-01-14)">
  <metadata
     id="metadata42">
    <rdf:RDF>
      <cc:Work
         rdf:about="">
        <dc:format>image/svg+xml</dc:format>
        <dc:type
           rdf:resource="http://purl.org/dc/dcmitype/StillImage" />
        <dc:title></dc:title>
      </cc:Work>
    </rdf:RDF>
  </metadata>
  <defs
     id="defs40" />
  <sodipodi:namedview
     pagecolor="#ffffff"
     bordercolor="#666666"
     borderopacity="1"
     objecttolerance="10"
     gridtolerance="10"
     guidetolerance="10"
     inkscape:pageopacity="0"
     inkscape:pageshadow="2"
     inkscape:window-width="1920"
     inkscape:window-height="1027"
     id="namedview38"
     showgrid="false"
     fit-margin-top="0"
     fit-margin-left="0"
     fit-margin-right="0"
     fit-margin-bottom="0"
     inkscape:zoom="0.30569948"
     inkscape:cx="-567.37288"
     inkscape:cy="378"
     inkscape:window-x="0"
     inkscape:window-y="53"
     inkscape:window-maximized="1"
     inkscape:current-layer="svg36" />
  <path
     d="M 19.301165,283.32825 283.32987,547.35697 547.40261,283.28423 C 459.35022,195.33223 371.47182,107.20595 283.3739,19.299554 Z"
     style="fill:#ffffff;stroke:none"
     id="path30"
     inkscape:connector-curvature="0" />
  <path
     d="M 141.65941,141.66886 0,283.32826 141.66886,424.99712 283.32827,566.65653 425.01602,424.96877 566.70378,283.28102 425.06327,141.64051 C 347.16571,63.742954 283.40386,0 283.37551,0 283.34711,0 219.57586,63.752403 141.65941,141.66886 Z M 402.62189,164.08188 521.82103,283.28102 402.57465,402.5274 283.31882,521.78323 164.12913,402.5274 44.948893,283.26212 164.13858,164.07244 C 229.69574,98.51527 283.34716,44.88275 283.37551,44.88275 c 0.0283,0 53.68922,53.64197 119.24638,119.19913 z"
     style="fill:#ff0000;stroke:none"
     id="path32"
     inkscape:connector-curvature="0" />
  <path
     d="m 344.1,224.05653 c -0.77482,-0.002 -1.55865,0.0352 -2.05,0.125 -0.95435,0.17954 -185.01357,49.59488 -185.675,49.85 -5.21585,2.05043 -8.71672,7.73607 -9.775,15.9 -0.21733,1.65358 -0.31949,4.6724 -0.225,6.6 0.15118,3.12762 0.55963,5.79128 1.325,8.9 3.11817,12.66166 10.9965,22.6102 19.425,24.5 0.9827,0.21733 3.2923,0.27953 4.275,0.1 0.83151,-0.14173 183.223,-49.04861 185.075,-49.625 3.52448,-1.09608 6.17851,-3.55642 8.125,-7.525 1.08664,-2.20162 1.74251,-4.33183 2.3,-7.45 0.4441,-2.45674 0.82616,-3.51257 1.875,-5.1 1.27562,-1.93705 3.48558,-3.58857 5.725,-4.25 0.36851,-0.10394 9.47203,-2.54305 20.225,-5.425 10.75296,-2.89139 19.78208,-5.36771 20.075,-5.5 4.34654,-1.99373 5.92898,-8.34241 3.425,-13.7 -1.37955,-2.93863 -3.87928,-5.10806 -6.525,-5.675 -0.89766,-0.18898 -2.2679,-0.16733 -3.175,0.05 -0.41576,0.10394 -9.37047,2.49975 -19.925,5.325 -10.54509,2.8347 -19.41653,5.20886 -19.7,5.275 -0.34016,0.085 -1.08836,0.125 -2.175,0.125 -1.81421,-0.009 -2.5104,-0.12971 -3.975,-0.725 -1.83311,-0.75592 -2.98854,-1.67673 -4.85,-3.85 -2.78745,-3.25046 -5.3031,-5.30214 -8.1,-6.625 -1.20002,-0.55749 -2.49112,-0.97657 -3.625,-1.175 -0.5197,-0.0898 -1.30018,-0.12264 -2.075,-0.125 z"
     style="fill:#000000;stroke:none;stroke-width:0.80000001"
     id="path34"
     inkscape:connector-curvature="0" />
</svg>
