<?xml version="1.0" encoding="UTF-8" standalone="no"?>
<svg
   xmlns:dc="http://purl.org/dc/elements/1.1/"
   xmlns:cc="http://creativecommons.org/ns#"
   xmlns:rdf="http://www.w3.org/1999/02/22-rdf-syntax-ns#"
   xmlns:svg="http://www.w3.org/2000/svg"
   xmlns="http://www.w3.org/2000/svg"
   xmlns:sodipodi="http://sodipodi.sourceforge.net/DTD/sodipodi-0.dtd"
   xmlns:inkscape="http://www.inkscape.org/namespaces/inkscape"
   height="709.22449"
   width="709.22449"
   viewBox="0 0 720 720"
   version="1.1"
   id="svg3939"
   sodipodi:docname="05.svg"
   inkscape:version="0.92.5 (2060ec1f9f, 2020-04-08)">
  <metadata
     id="metadata3945">
    <rdf:RDF>
      <cc:Work
         rdf:about="">
        <dc:format>image/svg+xml</dc:format>
        <dc:type
           rdf:resource="http://purl.org/dc/dcmitype/StillImage" />
        <dc:title></dc:title>
      </cc:Work>
    </rdf:RDF>
  </metadata>
  <defs
     id="defs3943" />
  <sodipodi:namedview
     pagecolor="#ffffff"
     bordercolor="#666666"
     borderopacity="1"
     objecttolerance="10"
     gridtolerance="10"
     guidetolerance="10"
     inkscape:pageopacity="0"
     inkscape:pageshadow="2"
     inkscape:window-width="1920"
     inkscape:window-height="1027"
     id="namedview3941"
     showgrid="false"
     inkscape:zoom="1"
     inkscape:cx="185.62272"
     inkscape:cy="389.49162"
     inkscape:window-x="0"
     inkscape:window-y="53"
     inkscape:window-maximized="1"
     inkscape:current-layer="svg3939"
     inkscape:snap-bbox="true"
     fit-margin-top="0"
     fit-margin-left="0"
     fit-margin-right="0"
     fit-margin-bottom="0" />
  <path
     d="M 360,720 720,360 360,0 0,360 Z"
     id="path3895"
     inkscape:connector-curvature="0"
     style="fill:#ff0000" />
  <path
     d="M 360,662.9 57.2,360.1 360,57.3 662.8,360.1 Z"
     id="path3897"
     inkscape:connector-curvature="0"
     style="fill:#ffffff" />
  <path
     d="m 217.93457,376.7 c -10.19245,-0.34033 -17.25715,-3.66093 -21.1,-10.13 h -71.81205 v 36.56 h 186.85382 v -36.56 l -69.70998,-0.0286 c -4.51404,7.18974 -10.03528,9.52686 -19.13766,10.1319"
     id="path3899"
     inkscape:connector-curvature="0"
     sodipodi:nodetypes="cccccccc" />
  <path
     d="m 236.22761,363.1 c 3.25,0 7.91,-1.57 11.67,-9.1 0.86,-1.71 1.03,-3.89 1.22,-6.2 0.1,-1.2 0.26,-3.13 0.54,-3.87 0.36,-0.25 1.19,-0.61 1.78,-0.87 2.21,-0.97 5.24,-2.29 6.83,-5.47 0.89,-1.78 1.15,-3.54 1.15,-5.22 0,-1.26 -0.15,-2.47 -0.29,-3.62 -0.15,-1.21 -0.28,-2.37 -0.28,-3.57 0,-0.41 0.001,-0.82 0.05,-1.24 0.18,-2.1 3.87,-6.65 7.19,-9.58 l -5.07,-5.77 c -1.54,1.35 -9.23,8.4 -9.78,14.69 -0.21,2.47 0.04,4.56 0.26,6.4 0.26,2.19 0.39,3.48 -0.11,4.48 -0.35,0.69 -1.77,1.32 -3.04,1.87 -1.96,0.86 -4.17,1.82 -5.4,4.07 -1.08,1.99 -1.29,4.58 -1.5,7.09 -0.09,1.15 -0.23,2.9 -0.45,3.42 -0.66,1.31 -1.35,2.37 -2.06,3.16 -0.48,1.32 -1.31,3.21 -2.73,5.25 v 4.08"
     id="path3901"
     inkscape:connector-curvature="0" />
  <path
     d="m 226.33457,358.3 4.39,6.3 c 2.51,-1.75 4.31,-3.73 5.61,-5.59 1.42,-2.03 2.24,-3.92 2.73,-5.25 0.18,-0.5 0.32,-0.92 0.42,-1.23 0.69,-2.15 0.18,-4.19 -0.27,-5.98 -0.47,-1.88 -0.74,-3.09 -0.22,-4.23 0.6,-1.34 1.62,-2.14 2.91,-3.15 1.47,-1.15 3.3,-2.59 4.44,-5 1.42,-2.98 0.59,-6.27 -0.21,-9.44 -0.56,-2.23 -1.14,-4.54 -0.83,-6.3 l -7.56,-1.34 c -0.15,0.82 -0.21,1.63 -0.21,2.44 0,2.51 0.6,4.91 1.16,7.09 0.31,1.23 0.76,3 0.76,3.9 0,0.16 -10e-4,0.29 -0.04,0.39 -0.34,0.72 -1.04,1.29 -2.24,2.24 -1.69,1.33 -3.79,2.98 -5.16,6 -0.71,1.58 -0.95,3.11 -0.95,4.51 0,1.84 0.41,3.47 0.73,4.74 0.15,0.6 0.37,1.48 0.38,1.84 -0.79,2.42 -2.17,5.5 -5.81,8"
     id="path3903"
     inkscape:connector-curvature="0" />
  <path
     d="m 192.63457,342.61 c 0.51,0.95 0.84,1.84 1.06,2.68 0.76,0.49 1.88,1.22 2.1,1.58 0.34,0.9 0.02,3.43 -0.2,5.11 -0.07,0.55 -0.14,1.08 -0.19,1.6 1.83,1.83 4.71,3.95 6.26,4.73 l -2.89,5.79 c 1.43,2.04 3.1,4.08 4.62,5.75 l 5.68,-5.17 c -3.27,-3.6 -5.57,-7.1 -6.12,-8.64 -10e-4,-0.07 -10e-4,-0.14 -10e-4,-0.24 0,-0.67 0.16,-1.95 0.28,-2.84 0.19,-1.51 0.4,-3.12 0.4,-4.71 0,-1.44 -0.17,-2.87 -0.67,-4.18 -1.01,-2.64 -3.38,-4.15 -5.27,-5.36 -1.12,-0.71 -2.65,-1.69 -2.73,-2.31 -0.02,-0.16 -0.03,-0.31 -0.03,-0.47 0,-0.77 0.24,-1.56 0.67,-2.9 0.63,-1.95 1.46,-4.53 1.46,-8.3 0,-0.51 -0.02,-1.04 -0.05,-1.59 l -7.67,0.46 c 0.19,3.2 -0.42,5.08 -1.06,7.1 -0.6,1.87 -1.29,4 -0.96,6.67 0.02,0.13 0.04,0.25 0.06,0.38 1.78,0.94 3.86,2.29 5.25,4.87"
     id="path3905"
     inkscape:connector-curvature="0" />
  <path
     d="m 176.54153,326.7 c 0.13,1.5 -0.11,2.56 -0.38,3.8 -0.47,2.11 -1.05,4.73 0.69,8.19 1.55,3.09 4.21,4.42 6.15,5.38 1.57,0.78 2.48,1.27 2.99,2.19 0.63,1.16 0.56,1.96 0.44,3.29 -0.14,1.62 -0.34,3.85 1.07,6.25 2.3,3.92 8.29,8.11 10.84,9.38 l 0.54,-1.08 2.89,-5.79 c -1.56,-0.78 -4.44,-2.89 -6.26,-4.73 -0.61,-0.61 -1.1,-1.19 -1.39,-1.68 -0.14,-0.23 -0.15,-0.52 -0.04,-1.67 0.11,-1.24 0.25,-2.94 -0.28,-4.94 -0.22,-0.84 -0.55,-1.74 -1.06,-2.68 -1.4,-2.58 -3.47,-3.93 -5.26,-4.87 -0.37,-0.19 -0.73,-0.38 -1.07,-0.55 -1.64,-0.81 -2.34,-1.21 -2.7,-1.94 -0.5,-1 -0.44,-1.39 -0.06,-3.1 0.32,-1.46 0.77,-3.45 0.54,-6.12 -0.44,-5.07 -4.36,-9.32 -7.52,-12.73 l -2.33,-2.61 -5.94,4.86 2.63,2.96 c 2.36,2.55 5.29,5.73 5.51,8.18"
     id="path3907"
     inkscape:connector-curvature="0" />
  <path
     d="m 210.35894,332.62496 c 0,5.9 1.49563,12.99808 8.41563,12.99808 6.91,0 8.60733,-8.94241 8.74,-12.6 0.22689,-6.25517 -4.91,-16.91 -6.1,-29.3 -1.53,-0.02 -2.81,-0.46 -3.88,-1.16 -1.07,13.9 -6.99874,21.96927 -7.15,28.44371"
     id="path3909"
     inkscape:connector-curvature="0"
     sodipodi:nodetypes="cssccc" />
  <path
     d="m 318.73457,220.1 c -15.1,2.4 -84.1,14.8 -90.7,16.1 -9.81,1.88 -12.1,-7 -16.56,-9.12 0,0 6.61,38.83 7,41.72 1.38,10.38 -5.72,15.72 -5.72,23.48 0,2.81 1.22,8 4.79,10.35 1.07,0.7 2.35,1.13 3.88,1.16 0.05,0 0.09,0 0.14,0 6.72,0 8.16,-6.72 8.16,-11.84 0,-7.92 -3.84,-12.48 -3.84,-14.4 0,-1.92 1.6,-4.16 7.68,-5.12 6.08,-0.96 82.1,-14.16 94.1,-16.1 12,-1.94 20.88,-11.76 18.96,-21.84 -1.92,-10.1 -12.72,-16.8 -27.84,-14.4 m 5.2,28.32 c -10.24,0.64 -99.7,9.28 -99.7,9.28 l -1.92,-12.64 c 0,0 88.5,-15.36 98.9,-17.1 10.4,-1.76 17.76,2.4 17.76,8.96 0,6.56 -4.8,10.88 -15,11.52"
     id="path3911"
     inkscape:connector-curvature="0" />
  <path
     d="m 483.43457,298.47913 c -2.07,10.68 -6.14185,19.03927 -6.52,23.74 -0.29348,3.64821 1.09,12.8 8,12.8 6.91,0 9.43829,-8.13976 9.1,-14 -0.37815,-6.55073 -4.08,-12.2 -5.79,-23.1 -1,0.44 -2.14,0.7 -3.45,0.7 -0.47,0 -0.9,-0.05 -1.32,-0.13"
     id="path3913"
     inkscape:connector-curvature="0"
     sodipodi:nodetypes="cssscsc" />
  <path
     d="m 372.33457,254.1 c 12,1.92 96.1,15.93 102.2,16.9 3.47,0.55 6.34987,1.47407 6.31,3.79 -0.0892,5.1832 -2.87808,4.34874 -3.71,10.73 -0.61535,4.72006 0.74,12.26 6.26,13.29 0.41,0.08 0.85,0.13 1.32,0.13 1.31,0 2.45,-0.25 3.45,-0.7 4.14,-1.83 5.78,-6.99 5.78,-11.69 0,-10.97 -5.7,-8.81 -4.33,-19.2 0.38,-2.88 5.92,-40.54 5.92,-40.54 -4.48,2.08 -5.67,9.82 -15.48,7.94 -6.67,-1.28 -83.8,-15.51 -98.9,-17.91 -15.1,-2.4 -25.36,5.46 -27.3,15.54 -1.94,10.08 6.48,19.79 18.48,21.71 m 9,-29.75 c 10.41,1.71 104.1,18.1 104.1,18.1 l -1.92,12.64 c 0,0 -96.9,-8.48 -107.1,-9.12 -10.24,-0.64 -14.88,-4.16 -14.88,-10.72 0,-6.56 8.16,-12.8 19.84,-10.88"
     id="path3915"
     inkscape:connector-curvature="0"
     sodipodi:nodetypes="ccsscscscccsscccccsc" />
  <path
     d="m 517.33457,310.8 c 0.05,1.08 0.08,1.67 -0.51,3 -1.12,2.48 -3.07,5.57 -6,6.27 l 1.75,7.48 c 3.33,-0.78 7.99,-3.25 11.3,-10.6 1.36,-3 1.25,-5.1 1.18,-6.54 -0.06,-1.2 -0.09,-1.7 0.93,-3.31 0.73,-1.14 0.93,-1.19 1.8,-1.42 1.97,-0.52 4.23,-1.37 6.18,-5 2.22,-4.14 1.5,-7.58 0.98,-10.1 -0.28,-1.38 -0.51,-2.46 -0.33,-3.59 0.27,-1.72 1.48,-3.04 3.79,-5.41 1.25,-1.29 2.67,-2.75 4.11,-4.58 l -6,-4.75 c -1.18,1.51 -2.4,2.76 -3.58,3.97 -2.56,2.63 -5.2,5.35 -5.87,9.56 -0.4,2.51 0.04,4.64 0.4,6.35 0.46,2.24 0.63,3.29 -0.23,4.9 -0.52,0.98 -0.54,0.98 -1.36,1.2 -1.93,0.51 -4.18,1.33 -6.34,4.74 -2.15,3.39 -2.23,5.63 -2.12,7.81"
     id="path3917"
     inkscape:connector-curvature="0" />
  <path
     d="m 504.23457,323.8 c 3.68,-3.24 4.82,-4.41 6.5,-9.81 1.09,-3.51 0.84,-5.83 0.64,-7.69 -0.16,-1.48 -0.27,-2.55 0.23,-4.46 0.26,-0.98 0.35,-1.02 1.42,-1.6 1.64,-0.88 4.38,-2.35 5.59,-7.11 1.11,-4.37 -0.15,-7.12 -1.07,-9.13 -0.72,-1.56 -1.15,-2.51 -0.77,-4.56 l -7.56,-1.38 c -0.8,4.43 0.44,7.15 1.35,9.13 0.72,1.57 1.05,2.29 0.61,4 -0.38,1.49 -0.65,1.63 -1.78,2.24 -1.53,0.82 -4.1,2.2 -5.22,6.39 -0.88,3.29 -0.64,5.49 -0.45,7.26 0.17,1.56 0.28,2.6 -0.34,4.58 -1.11,3.57 -1.23,3.68 -4.24,6.32 l -1.79,1.59 5.14,5.71 1.72,-1.53"
     id="path3919"
     inkscape:connector-curvature="0" />
  <path
     d="m 447.33457,298.2 c 0.87,3.85 3.61,5.54 5.61,6.78 1.82,1.13 2.44,1.59 2.69,2.8 0.4,1.88 0.22,2.42 -0.05,3.22 -0.54,1.6 -0.95,3.28 -0.13,6.18 1.44,5.1 2.98,6.76 8.1,11.87 l 5.43,-5.43 c -4.85,-4.85 -5.25,-5.41 -6.15,-8.55 -0.24,-0.84 -0.22,-0.9 0.02,-1.63 0.56,-1.68 1.05,-3.63 0.28,-7.26 -0.96,-4.52 -4.1,-6.45 -6.17,-7.73 -1.57,-0.97 -2,-1.32 -2.15,-1.93 -0.27,-1.22 0.02,-2.15 0.67,-3.98 0.78,-2.22 1.76,-4.98 1.3,-8.93 l -7.63,0.9 c 0.26,2.17 -0.26,3.63 -0.91,5.47 -0.75,2.13 -1.69,4.8 -0.92,8.23"
     id="path3921"
     inkscape:connector-curvature="0" />
  <path
     d="m 442.13457,296.2 c 0,-1.37 -0.21,-2.96 -0.85,-4.86 -1.78,-5.23 -3.63,-7.25 -5.77,-9.58 l -2.15,-2.44 -5.91,4.9 2.41,2.73 c 1.93,2.1 2.9,3.16 4.16,6.86 0.66,1.95 0.46,2.97 0.17,4.51 -0.38,1.98 -0.91,4.69 0.79,8.52 1.88,4.22 4.69,5.26 6.56,5.95 1.24,0.46 1.46,0.54 1.9,1.47 0.74,1.6 0.65,2.06 0.47,2.89 -0.23,1.1 -0.62,2.94 0.45,5.35 1.37,3.12 5.24,10.48 11.51,11.4 l 1.12,-7.6 c -1.54,-0.23 -4,-3.25 -5.6,-6.89 l -0.06,-0.18 0.1,-0.51 c 0.16,-0.76 0.3,-1.57 0.3,-2.49 0,-1.39 -0.31,-3.04 -1.31,-5.21 -1.77,-3.81 -4.44,-4.8 -6.21,-5.45 -1.32,-0.49 -1.63,-0.6 -2.19,-1.86 -0.38,-0.86 -0.52,-1.47 -0.52,-2.09 0,-0.55 0.11,-1.1 0.25,-1.85 0.19,-0.99 0.42,-2.16 0.42,-3.58"
     id="path3923"
     inkscape:connector-curvature="0" />
  <path
     d="m 511.35872,338.13745 c -10.52951,10.60861 -38.05181,9.92942 -49.5992,-2.51953 l -0.67501,-0.80928 -3.18492,1.47528 c -4.72913,2.19221 -11.03004,2.37146 -16.09008,2.50933 -6.43878,0.17923 -11.52639,0.33091 -14.13223,4.39823 -1.8889,2.95053 -1.70966,7.03165 0.51013,11.01626 14.37236,21.74526 38.8584,16.34766 62.01058,17.17438 l -0.0579,-8.62673 c -23.99982,1.17972 -52.84019,-1.91531 -52.59144,-13.25401 0.17144,-1.93984 5.98736,-1.46813 9.13572,-1.15153 4.8983,0.44506 6.61026,0.60485 12.40103,-1.29783 9.82929,4.78249 10.55689,7.46002 26.67232,8.39243 18.97825,-0.08 21.59473,-3.63331 27.9401,-6.03478 5.62534,2.4266 13.51182,7.21088 18.99925,10.53369 4.7705,2.89538 6.84737,3.68367 9.33177,4.83816 6.2021,1.84753 17.03757,3.55846 29.43258,3.55846 v -10.58884 c -14.00816,0 -20.95792,-0.93491 -26.21767,-2.7851 -2.03448,-0.55529 -4.26035,-2.41282 -6.99028,-4.0811 -7.12817,-4.32931 -16.88976,-10.25795 -23.57673,-12.54668 l -2.74372,-0.90997"
     id="path3925"
     inkscape:connector-curvature="0"
     sodipodi:nodetypes="cccccccccccccccccccccc"
     style="stroke-width:1.37875533" />
  <path
     d="m 438.9418,356.43291 -25.93449,-0.14747 c -17.78565,-0.10118 -19.68862,10.89218 -19.68862,14.71132 0,1.06165 0.47158,2.76031 1.14168,4.15836 l 15.40339,-0.29784 c -6.08429,0 -6.2182,-1.23745 -6.2182,-3.81916 0,-1.97161 1.80618,-4.13626 9.36175,-4.13626 h 39.96189 l -8.39612,-7.75942"
     id="path3927"
     inkscape:connector-curvature="0"
     sodipodi:nodetypes="cssccsscc"
     style="stroke-width:1.37875533" />
  <path
     d="m 397.71381,374.75118 c -10.20279,0 -17.06899,8.01057 -17.06899,15.49721 0,7.14195 6.34227,15.75918 17.59292,15.75918 h 3.29522 c 0.75832,-4.06733 3.9984,-9.85811 16.06249,-10.51991 v -0.0689 h -19.30256 c -3.97082,0 -7.04687,-2.4239 -7.00408,-5.18412 0.0269,-2.57619 1.93026,-4.89458 6.48015,-4.89458 h 55.98244 l 2.87559,-10.58884 h -58.85803"
     id="path3931"
     inkscape:connector-curvature="0"
     sodipodi:nodetypes="csscccscsccc"
     style="stroke-width:1.37875533" />
  <path
     d="m 391.52631,405.9248 c -0.16546,0.86862 -0.20681,1.64072 -0.20681,2.28873 0,8.68617 7.65209,15.75918 20.68132,15.75918 h 0.24818 c 1.9854,-5.8735 9.22387,-10.00976 18.84759,-10.5337 v -0.0689 h -19.09577 c -6.56287,0 -10.14764,-1.95512 -10.14764,-5.17033 0,-2.42934 1.68332,-2.28874 8.05193,-2.28874 h 46.56057 L 453.8113,395.3222 h -43.90619 c -0.82724,0 -1.59935,0.0276 -2.35766,0.0689 -12.06412,0.6618 -15.3042,6.45257 -16.06249,10.5199"
     id="path3933"
     inkscape:connector-curvature="0"
     sodipodi:nodetypes="csscccsssccscc"
     style="stroke-width:1.37875533" />
  <path
     d="m 410.90683,423.97275 c -0.35848,1.06164 -0.56528,2.17843 -0.56528,3.33659 0,6.6456 5.95621,13.78756 19.24741,14.9595 9.62373,0.79967 51.15183,2.10949 58.76255,2.10949 6.20441,0 32.20774,-0.84104 46.21588,-4.92215 4.13627,-1.21332 7.6521,-2.84025 11.03004,-4.41203 7.27984,-3.39174 9.44669,-6.89377 25.79872,-6.89377 v -10.58884 c -18.70971,0 -22.35183,4.19141 -30.26589,7.87269 -3.15735,1.46147 -6.13545,2.85403 -9.52719,3.84673 -11.76078,3.4331 -35.82007,4.49473 -43.25156,4.49473 -7.03165,0 -48.53218,-1.29602 -57.89394,-2.06812 -6.72831,-0.5653 -9.40516,-2.41147 -9.52718,-4.39823 0.005,-2.84431 1.191,-3.33659 10.91974,-3.33659 h 36.14262 L 459.2646,413.3839 h -27.41447 c -0.70317,0 -1.40633,0.0276 -2.09572,0.0689 -9.6375,0.52393 -16.86218,4.6464 -18.84758,10.5199"
     id="path3935"
     inkscape:connector-curvature="0"
     sodipodi:nodetypes="cscsccccccsccsccscc"
     style="stroke-width:1.37875533" />
  <path
     d="m 476.3887,366.69925 c -0.0414,0.59287 -0.0827,1.18573 -0.0827,1.80618 0,9.84431 5.18412,27.0236 39.92876,31.42182 l 1.32359,-10.5061 c -11.45745,-1.44771 -29.72358,-4.32451 -29.72358,-19.14613 0,-0.63424 -0.82963,-3.01047 -0.73312,-3.57577"
     id="path3937"
     inkscape:connector-curvature="0"
     sodipodi:nodetypes="csccsc"
     style="stroke-width:1.37875533" />
</svg>
