<?xml version="1.0" encoding="UTF-8" standalone="no"?>
<svg
   xmlns:dc="http://purl.org/dc/elements/1.1/"
   xmlns:cc="http://creativecommons.org/ns#"
   xmlns:rdf="http://www.w3.org/1999/02/22-rdf-syntax-ns#"
   xmlns:svg="http://www.w3.org/2000/svg"
   xmlns="http://www.w3.org/2000/svg"
   xmlns:sodipodi="http://sodipodi.sourceforge.net/DTD/sodipodi-0.dtd"
   xmlns:inkscape="http://www.inkscape.org/namespaces/inkscape"
   height="708.71643"
   width="708.71643"
   viewBox="0 0 899.6 899.6"
   version="1.1"
   id="svg130"
   sodipodi:docname="08.svg"
   inkscape:version="0.92.4 (5da689c313, 2019-01-14)">
  <metadata
     id="metadata136">
    <rdf:RDF>
      <cc:Work
         rdf:about="">
        <dc:format>image/svg+xml</dc:format>
        <dc:type
           rdf:resource="http://purl.org/dc/dcmitype/StillImage" />
        <dc:title></dc:title>
      </cc:Work>
    </rdf:RDF>
  </metadata>
  <defs
     id="defs134" />
  <sodipodi:namedview
     pagecolor="#ffffff"
     bordercolor="#666666"
     borderopacity="1"
     objecttolerance="10"
     gridtolerance="10"
     guidetolerance="10"
     inkscape:pageopacity="0"
     inkscape:pageshadow="2"
     inkscape:window-width="1920"
     inkscape:window-height="1027"
     id="namedview132"
     showgrid="false"
     fit-margin-top="0"
     fit-margin-left="0"
     fit-margin-right="0"
     fit-margin-bottom="0"
     inkscape:zoom="0.32596685"
     inkscape:cx="-532.235"
     inkscape:cy="354.35822"
     inkscape:window-x="0"
     inkscape:window-y="53"
     inkscape:window-maximized="1"
     inkscape:current-layer="svg130" />
  <path
     d="M 449.8,899.6 899.6,449.8 449.8,0 0,449.8 Z"
     id="path124"
     inkscape:connector-curvature="0"
     style="fill:#ff0000" />
  <path
     d="M 449.8,828.3 71.3,449.8 449.8,71.2 828.3,449.8 Z"
     id="path126"
     inkscape:connector-curvature="0"
     style="fill:#ffffff" />
  <path
     d="m 451.9,160.4 c -53,0 -96,46.3 -96,103.4 0,37.1 13.88,89.2 40.94,121.1 l -3.31,33.86 -72.6,26.3 c 1.16,5.67 6.18,9.93 12.18,9.93 1.06,0 2.09,-0.15 3.07,-0.4 1.38,5.36 6.23,9.31 12,9.31 0.61,0 1.21,-0.05 1.8,-0.14 1.42,5.3 6.24,9.21 12,9.21 1.69,0 3.3,-0.34 4.77,-0.95 0.39,3.98 3.76,7.1 7.85,7.1 0.8,0 1.58,-0.12 2.31,-0.35 1,5.85 6.1,10.31 12.24,10.31 4.78,0 8.93,-2.7 11,-6.65 2.09,1.59 4.69,2.54 7.51,2.54 1.83,0 3.57,-0.41 5.13,-1.12 1.62,3.44 4.63,6.09 8.29,7.23 -0.14,0.45 -0.25,0.93 -0.25,1.43 0,2.53 2.05,4.57 4.57,4.57 2.52,0 4.57,-2.04 4.57,-4.57 0,-0.56 -0.11,-1.09 -0.3,-1.59 5.33,-1.87 9.16,-6.93 9.16,-12.9 0,-2.73 -0.81,-5.27 -2.19,-7.4 2.24,-0.3 3.96,-2.19 3.96,-4.51 0,-1.97 -1.25,-3.64 -3,-4.27 1.9,-2.19 3.07,-5 3.07,-8.17 0,-0.59 -0.06,-1.18 -0.14,-1.75 4.69,-1.78 8,-6.31 8,-11.62 0,-3.32 -1.32,-6.32 -3.44,-8.55 0.39,0.11 0.79,0.19 1.21,0.19 2.52,0 4.56,-2.05 4.56,-4.57 0,-2.53 -2.04,-4.57 -4.56,-4.57 -1,0 -1.92,0.33 -2.68,0.88 -0.91,-1.7 -2.56,-2.93 -4.52,-3.25 1.54,-2.52 2.44,-5.46 2.44,-8.63 0,-2.05 -0.39,-4 -1.07,-5.82 4.71,-1.76 8.1,-6.3 8.1,-11.62 0,-3.11 -1.14,-5.94 -3,-8.12 3.45,-1.14 5.94,-4.39 5.94,-8.23 0,-3.15 -1.69,-5.9 -4.2,-7.42 1.18,-1.48 1.88,-3.34 1.88,-5.38 0,-0.52 -0.05,-1.03 -0.14,-1.52 1.8,-0.09 3.46,-0.7 4.82,-1.72 -0.11,0.54 -0.16,1.08 -0.16,1.64 0,3.08 1.6,5.78 4,7.32 -0.48,1.32 -0.75,2.74 -0.75,4.22 0,5.07 3,9.41 7.36,11.35 -0.4,1.42 -0.63,2.92 -0.63,4.46 0,5.26 2.48,9.94 6.33,12.94 -3.37,1.47 -5.73,4.83 -5.73,8.74 0,3.91 2.35,7.26 5.71,8.74 -0.67,1.16 -1.06,2.51 -1.06,3.95 0,3.16 1.85,5.87 4.53,7.13 -0.77,1.91 -1.2,3.99 -1.2,6.17 0,2.62 0.63,5.1 1.73,7.3 -0.53,0.6 -1,1.22 -1.45,1.89 -0.83,-0.84 -1.98,-1.36 -3.25,-1.36 -2.52,0 -4.57,2.04 -4.57,4.57 0,2.52 2.05,4.56 4.57,4.56 0.22,0 0.42,-0.03 0.63,-0.06 -0.03,0.42 -0.06,0.84 -0.06,1.27 0,3.17 0.91,6.11 2.46,8.62 -1.33,2.52 -2.09,5.39 -2.09,8.44 0,4.68 1.78,8.92 4.67,12.14 -0.8,1.3 -1.27,2.82 -1.27,4.46 0,4.67 3.78,8.46 8.46,8.46 4.16,0 7.61,-3 8.32,-6.96 2.29,-0.25 4.44,-0.92 6.39,-1.93 1,2.17 3.2,3.69 5.75,3.69 3.51,0 6.35,-2.84 6.35,-6.35 0,-2.65 -1.64,-4.92 -3.95,-5.87 0.64,-1.38 1.1,-2.87 1.38,-4.41 1.37,0.37 2.8,0.58 4.29,0.58 0.18,0 0.37,-0.02 0.56,-0.02 1.11,2.86 3.89,4.88 7.15,4.88 2.5,0 4.72,-1.2 6.12,-3.06 0.79,2.88 3.42,5 6.56,5 2.37,0 4.46,-1.22 5.68,-3.07 1.32,0.81 2.86,1.29 4.53,1.29 4.79,0 8.67,-3.89 8.67,-8.68 0,-1.6 -0.44,-3.09 -1.2,-4.38 0.66,0.22 1.37,0.33 2.09,0.33 3.76,0 6.81,-3.04 6.81,-6.8 0,-0.32 -0.03,-0.63 -0.08,-0.94 1.45,2.79 4.35,4.69 7.71,4.69 4.73,0 8.57,-3.78 8.66,-8.49 2.26,-1.4 3.84,-3.81 4.09,-6.6 0.44,0.15 0.9,0.24 1.39,0.24 2.52,0 4.57,-2.04 4.57,-4.57 0,-0.52 -0.09,-1.03 -0.26,-1.5 l -6.94,-2.23 -72.5,-23.34 -0.29,-30.95 c 11,-11.84 19.59,-27.1 25.81,-43.69 11.78,-31.4 18.1,-64.6 18.1,-81.98 0,-45 -43,-103.4 -96,-103.4 z M 303.3,452.3 c -1.25,0 -2.42,0.36 -3.41,0.97 -17.25,6.61 -31.57,12.1 -37,14.3 -12.17,4.86 -21.2,17.87 -21.2,30.76 v 41.54 l 67.3,68.3 c 0.68,0.15 1.4,0.22 2.13,0.22 3.73,0 6.99,-2.03 8.73,-5 1.35,0.51 2.82,0.8 4.35,0.8 6.87,0 12.44,-5.57 12.44,-12.44 0,-0.49 -0.04,-0.98 -0.09,-1.45 1.84,2.28 4.66,3.74 7.83,3.74 5.56,0 10.1,-4.51 10.1,-10.1 0,-1.51 -0.34,-2.93 -0.93,-4.21 2,-0.71 3.74,-2.04 4.94,-3.76 1.28,1.31 3.06,2.12 5,2.12 3.89,0 7.1,-3.16 7.1,-7 0,-2.03 -0.86,-3.85 -2.23,-5.14 2.58,-1.25 4.54,-3.57 5.31,-6.39 1.62,1.78 3.87,2.98 6.39,3.24 -1,1.23 -1.63,2.8 -1.63,4.52 0,3.89 3.16,7 7.1,7 3.94,0 7.1,-3.16 7.1,-7 0,-3.19 -2.12,-5.88 -5,-6.75 2.24,-1.85 3.67,-4.65 3.67,-7.78 0,-0.93 -0.13,-1.81 -0.37,-2.66 0.31,0.02 0.62,0.04 0.93,0.04 1.42,0 2.77,-0.29 3.99,-0.82 0.11,2.71 2.32,4.88 5.06,4.88 2.8,0 5.08,-2.28 5.08,-5.08 0,-2.74 -2.17,-4.95 -4.89,-5.06 0.53,-1.22 0.83,-2.57 0.83,-3.99 0,-0.87 -0.13,-1.7 -0.34,-2.5 2.53,0 4.58,-2.04 4.58,-4.57 0,-2.52 -2.05,-4.56 -4.58,-4.56 -0.13,0 -0.25,0.02 -0.38,0.03 -0.26,-3.8 -2.22,-7.13 -5.13,-9.23 0.001,-0.29 0.04,-0.58 0.04,-0.88 0,-6.87 -5.57,-12.43 -12.44,-12.43 -2.39,0 -4.62,0.68 -6.51,1.86 0.27,-0.72 0.42,-1.5 0.42,-2.31 0,-3.6 -2.91,-6.52 -6.51,-6.52 -0.65,0 -1.26,0.1 -1.85,0.27 0.09,-0.58 0.14,-1.18 0.14,-1.78 0,-6.87 -5.56,-12.44 -12.43,-12.44 -2.13,0 -4.13,0.53 -5.88,1.47 -1.57,-2.56 -4,-4.5 -6.97,-5.39 0.37,-0.82 0.59,-1.74 0.59,-2.7 0,-3.6 -2.92,-6.52 -6.52,-6.52 -0.85,0 -1.65,0.17 -2.39,0.46 -0.05,-6.83 -5.59,-12.35 -12.43,-12.35 -1.11,0 -2.17,0.16 -3.19,0.43 -0.99,-2.33 -3.3,-3.97 -6,-3.97 -1.59,0 -3.04,0.57 -4.17,1.52 -0.44,-3.18 -3.15,-5.63 -6.45,-5.63 m 304.3,1.46 c -3.06,0.24 -5.55,2.49 -6.14,5.44 -0.93,-0.48 -1.98,-0.75 -3.1,-0.75 -3.76,0 -6.8,3.04 -6.8,6.8 0,0.37 0.03,0.73 0.09,1.08 -2.07,-1.54 -4.63,-2.46 -7.41,-2.46 -6.87,0 -12.44,5.56 -12.44,12.43 v 0.06 c -1.26,-0.3 -2.57,-0.49 -3.93,-0.49 -9.1,0 -16.41,7.35 -16.41,16.42 0,0.85 0.08,1.68 0.21,2.5 -0.97,-0.43 -2.04,-0.67 -3.16,-0.67 -2.59,0 -4.88,1.26 -6.32,3.18 -1.49,-0.49 -3.07,-0.76 -4.72,-0.76 -8.09,0 -14.67,6.39 -15,14.4 -0.52,-0.11 -1.05,-0.16 -1.6,-0.16 -4.35,0 -7.88,3.53 -7.88,7.88 0,1.33 0.33,2.57 0.9,3.67 -1.25,-0.71 -2.7,-1.12 -4.24,-1.12 -4.79,0 -8.68,3.89 -8.68,8.68 0,2.5 1.07,4.75 2.76,6.33 v 0.08 c -2,0.2 -3.68,1.55 -4.32,3.39 -0.26,0.57 -0.4,1.2 -0.4,1.86 0,1.6 0.83,3 2.08,3.83 0.87,0.67 1.94,1.08 3.12,1.08 2.18,0 4,-1.37 4.76,-3.29 1.18,0.64 2.53,1 3.97,1 0.65,0 1.28,-0.08 1.89,-0.22 -0.05,0.52 -0.08,1.05 -0.08,1.59 0,1.98 0.39,3.87 1.09,5.61 -2.8,0.66 -4.89,3.16 -4.89,6.16 0,0.93 0.2,1.8 0.56,2.59 0.9,2.29 3.12,3.92 5.73,3.92 2.17,0 4.06,-1.12 5.16,-2.8 0.41,-0.58 0.74,-1.21 0.95,-1.9 1.95,0.93 4.13,1.46 6.44,1.46 0.72,0 1.41,-0.07 2.1,-0.16 -0.41,1.09 -0.64,2.27 -0.64,3.51 0,1.63 0.4,3.16 1.09,4.52 -0.32,-0.06 -0.65,-0.1 -0.99,-0.1 -2.8,0 -5.08,2.27 -5.08,5.08 0,2.8 2.28,5.08 5.08,5.08 2.53,0 4.61,-1.86 4.99,-4.28 1.37,5.38 6.24,9.36 12,9.36 2.61,0 5,-0.8 7,-2.17 0.6,4.99 4.85,8.86 10,8.86 2.62,0 5,-1 6.8,-2.66 -0.02,0.3 -0.05,0.61 -0.05,0.92 0,6.86 5.57,12.43 12.44,12.43 2.35,0 4.54,-0.66 6.42,-1.8 -0.94,1.28 -1.5,2.86 -1.5,4.57 0,4.29 3.47,7.76 7.75,7.76 2.59,0 4.88,-1.28 6.29,-3.22 l 67.3,-61.99 v -45.4 c 0,-13.77 -14.82,-30.98 -32.74,-37.1 -4,-1.37 -30.56,-10 -30.56,-10 m -153.4,6 c -3.51,0 -6.35,2.84 -6.35,6.35 0,2.42 1.37,4.5 3.37,5.57 -1.91,0.55 -3.31,2.29 -3.31,4.37 0,2.53 2.05,4.57 4.57,4.57 2.52,0 4.57,-2.04 4.57,-4.57 0,-1.52 -0.75,-2.86 -1.9,-3.69 3.05,-0.46 5.39,-3.07 5.39,-6.25 0,-3.51 -2.84,-6.35 -6.34,-6.35 m -22.7,5.89 -0.03,0.27 -0.32,-0.17 c 0.12,-0.03 0.24,-0.07 0.35,-0.1 m 13.78,21.61 c -2.53,0 -4.57,2.05 -4.57,4.57 0,2.52 2.04,4.57 4.57,4.57 2.52,0 4.57,-2.05 4.57,-4.57 0,-2.52 -2.05,-4.57 -4.57,-4.57 m -42.1,4.86 c -3.6,0 -6.52,2.92 -6.52,6.52 0,3.6 2.92,6.51 6.52,6.51 3.6,0 6.52,-2.91 6.52,-6.51 0,-3.6 -2.92,-6.52 -6.52,-6.52 m 73.86,11.58 c -2.81,0 -5.1,2.29 -5.1,5.1 0,2.82 2.29,5.11 5.1,5.11 0.41,0 0.81,-0.06 1.18,-0.16 0.19,3.6 3.15,6.46 6.79,6.46 0.5,0 0.98,-0.06 1.45,-0.16 3.16,-0.36 5.62,-3 5.62,-6.27 0,-1.16 -0.33,-2.23 -0.87,-3.17 -1.07,-2.36 -3.44,-4 -6.2,-4 -1.12,0 -2.17,0.27 -3.1,0.75 -0.63,-2.1 -2.56,-3.65 -4.87,-3.65 m -70.85,11.67 c -2.53,0 -4.57,2.05 -4.57,4.57 0,2.53 2.04,4.57 4.57,4.57 0.96,0 1.86,-0.3 2.6,-0.82 0.17,3.36 2.91,6 6.31,6 3.51,0 6.35,-2.84 6.35,-6.35 0,-3.5 -2.84,-6.34 -6.35,-6.34 -1.75,0 -3.33,0.71 -4.48,1.85 -0.48,-2 -2.28,-3.51 -4.43,-3.51 m 89,32.51 c -3.76,0 -6.8,3.04 -6.8,6.8 0,0.86 0.16,1.68 0.45,2.44 -2.46,0.34 -4.37,2.44 -4.37,5 0,0.72 0.16,1.4 0.43,2 0.71,1.79 2.45,3.07 4.5,3.07 h 0.13 c 2.82,0 5.1,-2.28 5.1,-5.08 0,-0.23 -0.04,-0.45 -0.07,-0.67 0.21,0.02 0.42,0.03 0.63,0.03 3.76,0 6.8,-3.04 6.8,-6.8 0,-3.76 -3.04,-6.8 -6.8,-6.8 m -53.3,8.58 c -3.51,0 -6.35,2.85 -6.35,6.35 0,3.51 2.84,6.35 6.35,6.35 3.5,0 6.34,-2.84 6.34,-6.35 0,-3.5 -2.84,-6.35 -6.34,-6.35 m -37,0.93 c -2.8,0 -5.08,2.27 -5.08,5.08 0,2.8 2.28,5.07 5.08,5.07 2.8,0 5.07,-2.27 5.07,-5.07 0,-2.81 -2.27,-5.08 -5.07,-5.08 m 7.44,13.78 c -3.89,0 -7.1,3.16 -7.1,7 0,3.54 2.61,6.46 6,6.97 -0.02,0.26 -0.05,0.52 -0.05,0.79 -2.16,-1.78 -4.92,-2.86 -7.94,-2.86 -4.52,0 -8.47,2.43 -10.65,6 -1.84,-2.03 -4.49,-3.31 -7.45,-3.31 -4.7,0 -8.64,3.22 -9.75,7.58 -1.62,-1.11 -3.57,-1.75 -5.68,-1.75 -5.56,0 -10.1,4.5 -10.1,10.1 0,0.78 0.09,1.53 0.26,2.26 -2.67,-2.43 -6.21,-3.93 -10.1,-3.93 -6.21,0 -11.53,3.76 -13.83,9.12 -1.62,-1.1 -3.57,-1.75 -5.68,-1.75 -5.56,0 -10.1,4.5 -10.1,10.1 0,0.81 0.1,1.6 0.28,2.35 L 442.76,744 c 1.6,-0.67 2.72,-2.25 2.72,-4.09 0,-1.74 -1.02,-3.23 -2.48,-3.96 1.73,-0.61 2.98,-2.23 2.98,-4.17 0,-1.83 -1.11,-3.4 -2.69,-4.08 1.57,-1.03 2.6,-2.8 2.6,-4.81 0,-2.75 -1.92,-5 -4.49,-5.62 5.11,-3.53 8.47,-9.42 8.47,-16.1 0,-4.13 -1.28,-7.95 -3.46,-11.1 3.52,-2.2 5.86,-6.1 5.86,-10.55 0,-5 -2.98,-9.35 -7.27,-11.31 1.69,-1.29 2.78,-3.31 2.78,-5.6 0,-2.39 -1.19,-4.5 -3,-5.78 1.03,-1.22 1.64,-2.79 1.64,-4.51 0,-3.89 -3.16,-7 -7.1,-7 -0.59,0 -1.15,0.08 -1.7,0.21 0.79,-1.63 1.25,-3.46 1.25,-5.4 0,-1.81 -0.4,-3.53 -1.1,-5.08 3.66,-0.26 6.54,-3.3 6.54,-7 0,-3 -1.92,-5.61 -4.61,-6.6 2.63,-2.28 4.31,-5.64 4.31,-9.4 0,-4.3 -2.18,-8.09 -5.5,-10.32 1.92,-2.19 3.1,-5.06 3.1,-8.2 0,-2.75 -0.9,-5.28 -2.42,-7.34 1.96,-0.7 3.37,-2.56 3.37,-4.76 0,-2.8 -2.27,-5.08 -5.08,-5.08 -1.71,0 -3.22,0.86 -4.14,2.16 -2.27,-2.81 -5.75,-4.61 -9.65,-4.61 -1.83,0 -3.55,0.4 -5.11,1.1 -1.19,-2.21 -3.53,-3.72 -6.22,-3.72 z m 69.1,2.03 c -4.67,0 -8.46,3.79 -8.46,8.46 0,1.44 0.37,2.8 1,3.98 -1.22,-1 -2.78,-1.61 -4.48,-1.61 -3.9,0 -7.1,3.15 -7.1,7 0,3.35 2.34,6.15 5.48,6.86 -0.92,1.74 -1.45,3.71 -1.45,5.81 0,4 1.93,7.61 4.91,9.88 -1.14,2.12 -1.79,4.54 -1.79,7.11 0,3.99 1.56,7.61 4.1,10.3 -0.83,1.87 -1.3,3.93 -1.3,6.1 0,0.84 0.09,1.66 0.22,2.46 -1.02,-0.7 -2.23,-1.16 -3.54,-1.25 0.86,-1.17 1.38,-2.61 1.38,-4.17 0,-3.9 -3.16,-7 -7.1,-7 -3.9,0 -7.1,3.15 -7.1,7 0,1.87 0.72,3.56 1.91,4.82 -2.95,0.84 -5.12,3.56 -5.12,6.78 0,3.89 3.16,7 7.1,7 0.22,0 0.43,-0.04 0.65,-0.06 -1.3,2.22 -2.06,4.81 -2.06,7.57 0,5.25 2.69,9.86 6.76,12.55 -5.38,2.29 -9.16,7.63 -9.16,13.85 0,4.51 1.99,8.55 5.14,11.31 -3.26,2.24 -5.4,5.99 -5.4,10.24 0,1.74 0.36,3.39 1,4.89 -0.91,1.51 -1.44,3.27 -1.44,5.16 0,2.18 0.71,4.2 1.89,5.85 -1.02,0.81 -1.69,2.05 -1.69,3.46 0,1.52 0.77,2.87 1.94,3.67 -1.22,0.79 -2,2.15 -2,3.71 0,0.28 0.03,0.56 0.08,0.83 -1,0.81 -1.68,2.04 -1.68,3.45 0,1.84 1.12,3.41 2.71,4.09 l 131.7,-121.6 c 0.26,-0.74 0.41,-1.53 0.41,-2.36 0,-3.9 -3.16,-7 -7,-7 -1.21,0 -2.35,0.31 -3.34,0.84 -1.22,-4.19 -5.09,-7.25 -9.67,-7.25 -1.98,0 -3.81,0.58 -5.37,1.56 0.02,-0.26 0.04,-0.51 0.04,-0.77 0,-6.87 -5.57,-12.44 -12.44,-12.44 -1.61,0 -3.14,0.32 -4.55,0.88 -0.18,-3.74 -3.25,-6.72 -7,-6.72 -3.9,0 -7,3.16 -7,7.1 0,0.3 0.02,0.6 0.06,0.89 -1.77,-2.88 -4.95,-4.81 -8.58,-4.81 -0.58,0 -1.14,0.06 -1.69,0.15 -0.08,-6.8 -5.61,-12.29 -12.43,-12.29 -0.7,0 -1.37,0.07 -2.04,0.18 -0.33,-3.58 -3.35,-6.38 -7,-6.38 -3.04,0 -5.62,1.92 -6.62,4.61 -0.31,-0.02 -0.62,-0.04 -0.94,-0.04 -1.42,0 -2.79,0.21 -4.09,0.57 -1.21,-3.19 -4.29,-5.47 -7.91,-5.47 z m -28.2,27.73 c -2.81,0 -5.08,2.28 -5.08,5.08 0,1.52 0.68,2.86 1.73,3.79 -1.36,1.28 -2.21,3.1 -2.21,5.12 0,3.89 3.16,7 7.1,7 3.9,0 7.1,-3.16 7.1,-7 0,-2.86 -1.7,-5.31 -4.15,-6.42 0.42,-0.74 0.68,-1.58 0.68,-2.49 0,-2.8 -2.27,-5.08 -5.07,-5.08"
     id="path128"
     inkscape:connector-curvature="0" />
</svg>
