<?xml version="1.0" encoding="UTF-8" standalone="no"?>
<svg
   xmlns:dc="http://purl.org/dc/elements/1.1/"
   xmlns:cc="http://creativecommons.org/ns#"
   xmlns:rdf="http://www.w3.org/1999/02/22-rdf-syntax-ns#"
   xmlns:svg="http://www.w3.org/2000/svg"
   xmlns="http://www.w3.org/2000/svg"
   xmlns:sodipodi="http://sodipodi.sourceforge.net/DTD/sodipodi-0.dtd"
   xmlns:inkscape="http://www.inkscape.org/namespaces/inkscape"
   height="709.22449"
   width="709.22449"
   viewBox="0 0 720 720"
   version="1.1"
   id="svg254"
   sodipodi:docname="09.svg"
   inkscape:version="0.92.4 (5da689c313, 2019-01-14)">
  <metadata
     id="metadata260">
    <rdf:RDF>
      <cc:Work
         rdf:about="">
        <dc:format>image/svg+xml</dc:format>
        <dc:type
           rdf:resource="http://purl.org/dc/dcmitype/StillImage" />
        <dc:title></dc:title>
      </cc:Work>
    </rdf:RDF>
  </metadata>
  <defs
     id="defs258" />
  <sodipodi:namedview
     pagecolor="#ffffff"
     bordercolor="#666666"
     borderopacity="1"
     objecttolerance="10"
     gridtolerance="10"
     guidetolerance="10"
     inkscape:pageopacity="0"
     inkscape:pageshadow="2"
     inkscape:window-width="1920"
     inkscape:window-height="1027"
     id="namedview256"
     showgrid="false"
     fit-margin-top="0"
     fit-margin-left="0"
     fit-margin-right="0"
     fit-margin-bottom="0"
     inkscape:zoom="0.32596685"
     inkscape:cx="-587.20132"
     inkscape:cy="354.51374"
     inkscape:window-x="0"
     inkscape:window-y="53"
     inkscape:window-maximized="1"
     inkscape:current-layer="svg254" />
  <path
     d="M 360,720 720,360 360,0 0,360 Z"
     id="path240"
     inkscape:connector-curvature="0"
     style="fill:#ff0000" />
  <path
     d="M 360,662.9 57.2,360.1 360,57.3 662.8,360.1 Z"
     id="path242"
     inkscape:connector-curvature="0"
     style="fill:#ffffff" />
  <g
     id="g250"
     style="stroke:#000000;stroke-width:5"
     transform="translate(-7.5,-7.4)">
    <path
       d="M 223.7,367.2 H 504.9"
       id="path244"
       inkscape:connector-curvature="0" />
    <path
       d="m 462.7,418 32.98,23.79 -31.36,15.1 42.2,3.79 -11.36,15.1 h 23.3 l 0.54,16.76 -294.2,-1.605 c 0,0 49.2,-14.58 57.3,-8.635 10.82,-4.87 89.8,-38.4 89.8,-36.2 m -75.72,-25.98 1.62,-85.4 -42.72,-23.2 c 0,0 -6.49,-4.33 -15.68,-1.62 -3.25,1.08 -7.57,2.16 -7.57,2.16 0,0 23.3,-19.47 27.58,-17.84 4.33,1.62 34.61,16.22 34.61,16.22 0,0 -3.25,-22.71 -11.36,-29.2 -8.11,-6.49 -39.47,-31.36 -39.47,-31.36 v -5.95 l 42.72,25.96 c 0,0 1.62,-24.87 -7,-39.47 -8.65,-14.6 -15.1,-27.58 -15.1,-27.58 l 2.7,-2.16 21.1,32.44 7,-22.2 4.33,-1.08 c 0,0 -5.41,31.36 -1.62,41.1 3.79,9.73 17.84,62.73 17.84,62.73 l 21.1,-30.3 c 0,0 0.54,-12.44 -0.54,-21.1 -1.08,-8.65 -2.7,-48.67 -2.7,-48.67 h 3.79 l 5.95,43.8 34.1,-39.47 v 4.33 c 0,0 -33.51,42.2 -31.89,51.4 1.62,9.19 3.24,14.6 -2.7,27.58 -5.94,12.98 -9.73,22.2 -9.73,22.2 0,0 17.84,-21.1 25.96,-22.71 8.11,-0.54 18.91,0.54 26.48,-5.95 7.57,-6.49 25.96,-27 25.96,-27 l -28.66,44.3 c 0,0 -13.51,0.54 -18.91,6.49 -5.41,5.95 -27.58,31.36 -27.58,31.36 v 58.4 l 36.76,18.38 -44.87,6.49 -10.82,15.68 -14.6,-12.44 -40.62,3.735 z"
       id="path246"
       inkscape:connector-curvature="0"
       style="stroke-width:4" />
    <path
       d="m 355.2,445.1 c 10.29,-4.29 27,-11.36 36.76,-25.42 10.1,-14.54 45.96,-75.7 95.2,-70.8 -2.7,6.49 -11.36,20.55 -11.36,20.55 l 35.1,-10.82 c 0,0 0.54,46.5 -65.97,76.2 -30.82,10.82 -37.3,11.36 -40,15.1 -2.7,3.79 -15.1,22.71 -15.1,22.71 l -55.14,-24.3 c 0,0 14.06,-0.515 20.51,-3.215 z"
       id="path248"
       inkscape:connector-curvature="0"
       style="fill:#ffffff" />
  </g>
  <ellipse
     cy="378.39999"
     cx="476.79999"
     rx="5.9499998"
     ry="5.1300001"
     id="ellipse252" />
</svg>
